<mxfile host="app.diagrams.net" modified="2020-11-26T22:46:18.706Z" agent="5.0 (Windows NT 10.0; Win64; x64) AppleWebKit/537.36 (KHTML, like Gecko) Chrome/87.0.4280.66 Safari/537.36" etag="v7VWW0yeWDL69vcbLwYN" version="13.10.4" type="github" pages="2">
  <diagram id="dwUuTy2cjDjsSNc9xWwy" name="Page-1">
    <mxGraphModel dx="865" dy="457" grid="0" gridSize="10" guides="1" tooltips="1" connect="1" arrows="1" fold="1" page="1" pageScale="1" pageWidth="827" pageHeight="1169" math="0" shadow="0">
      <root>
        <mxCell id="0" />
        <mxCell id="1" parent="0" />
        <mxCell id="FPQnXXEWQoTXQ_zC0M5o-1" value="" style="ellipse;whiteSpace=wrap;html=1;fillColor=#dae8fc;strokeColor=none;" parent="1" vertex="1">
          <mxGeometry x="60" y="160" width="40" height="40" as="geometry" />
        </mxCell>
        <mxCell id="FPQnXXEWQoTXQ_zC0M5o-2" value="User" style="text;html=1;strokeColor=none;fillColor=none;align=center;verticalAlign=middle;whiteSpace=wrap;rounded=0;" parent="1" vertex="1">
          <mxGeometry x="60" y="200" width="40" height="20" as="geometry" />
        </mxCell>
        <mxCell id="FPQnXXEWQoTXQ_zC0M5o-6" value="POST" style="text;html=1;strokeColor=none;fillColor=none;align=center;verticalAlign=middle;whiteSpace=wrap;rounded=0;" parent="1" vertex="1">
          <mxGeometry x="130" y="170" width="40" height="20" as="geometry" />
        </mxCell>
        <mxCell id="FPQnXXEWQoTXQ_zC0M5o-11" value="" style="shape=flexArrow;endArrow=classic;html=1;endWidth=30.697674418604652;endSize=8.411627906976745;width=23.72093023255814;" parent="1" target="FPQnXXEWQoTXQ_zC0M5o-12" edge="1">
          <mxGeometry width="50" height="50" relative="1" as="geometry">
            <mxPoint x="100" y="179.88" as="sourcePoint" />
            <mxPoint x="220" y="179.88" as="targetPoint" />
          </mxGeometry>
        </mxCell>
        <mxCell id="FPQnXXEWQoTXQ_zC0M5o-14" style="edgeStyle=orthogonalEdgeStyle;rounded=0;orthogonalLoop=1;jettySize=auto;html=1;exitX=1;exitY=0.5;exitDx=0;exitDy=0;entryX=0;entryY=0.5;entryDx=0;entryDy=0;entryPerimeter=0;dashed=1;" parent="1" source="FPQnXXEWQoTXQ_zC0M5o-12" target="FPQnXXEWQoTXQ_zC0M5o-13" edge="1">
          <mxGeometry relative="1" as="geometry" />
        </mxCell>
        <mxCell id="FPQnXXEWQoTXQ_zC0M5o-19" style="edgeStyle=orthogonalEdgeStyle;rounded=0;orthogonalLoop=1;jettySize=auto;html=1;exitX=0.5;exitY=1;exitDx=0;exitDy=0;entryX=0;entryY=0.5;entryDx=0;entryDy=0;dashed=1;" parent="1" source="FPQnXXEWQoTXQ_zC0M5o-12" target="FPQnXXEWQoTXQ_zC0M5o-15" edge="1">
          <mxGeometry relative="1" as="geometry" />
        </mxCell>
        <mxCell id="FPQnXXEWQoTXQ_zC0M5o-12" value="Command&amp;nbsp;&lt;br&gt;Microservice" style="rounded=0;whiteSpace=wrap;html=1;fillColor=#ffe6cc;strokeColor=none;" parent="1" vertex="1">
          <mxGeometry x="250" y="150" width="120" height="60" as="geometry" />
        </mxCell>
        <mxCell id="FPQnXXEWQoTXQ_zC0M5o-13" value="command&amp;nbsp;&lt;br&gt;H2" style="shape=cylinder3;whiteSpace=wrap;html=1;boundedLbl=1;backgroundOutline=1;size=15;" parent="1" vertex="1">
          <mxGeometry x="430" y="140" width="70" height="80" as="geometry" />
        </mxCell>
        <mxCell id="FPQnXXEWQoTXQ_zC0M5o-23" style="edgeStyle=orthogonalEdgeStyle;rounded=0;orthogonalLoop=1;jettySize=auto;html=1;exitX=0.602;exitY=0.978;exitDx=0;exitDy=0;entryX=0.5;entryY=0;entryDx=0;entryDy=0;dashed=1;exitPerimeter=0;" parent="1" source="FPQnXXEWQoTXQ_zC0M5o-15" target="FPQnXXEWQoTXQ_zC0M5o-22" edge="1">
          <mxGeometry relative="1" as="geometry" />
        </mxCell>
        <mxCell id="FPQnXXEWQoTXQ_zC0M5o-15" value="Apache Kafka Topic" style="rounded=1;whiteSpace=wrap;html=1;fillColor=#fff2cc;strokeColor=#d6b656;" parent="1" vertex="1">
          <mxGeometry x="250" y="250" width="180" height="30" as="geometry" />
        </mxCell>
        <mxCell id="FPQnXXEWQoTXQ_zC0M5o-17" value="" style="shape=image;verticalLabelPosition=bottom;labelBackgroundColor=#ffffff;verticalAlign=top;aspect=fixed;imageAspect=0;image=https://cdn.icon-icons.com/icons2/2248/PNG/512/apache_kafka_icon_138937.png;" parent="1" vertex="1">
          <mxGeometry x="430" y="250" width="32" height="32" as="geometry" />
        </mxCell>
        <mxCell id="FPQnXXEWQoTXQ_zC0M5o-26" style="edgeStyle=orthogonalEdgeStyle;rounded=0;orthogonalLoop=1;jettySize=auto;html=1;exitX=1;exitY=0.5;exitDx=0;exitDy=0;entryX=0;entryY=0.5;entryDx=0;entryDy=0;entryPerimeter=0;dashed=1;" parent="1" source="FPQnXXEWQoTXQ_zC0M5o-21" target="FPQnXXEWQoTXQ_zC0M5o-25" edge="1">
          <mxGeometry relative="1" as="geometry" />
        </mxCell>
        <mxCell id="FPQnXXEWQoTXQ_zC0M5o-21" value="Query&lt;br&gt;Microservice" style="rounded=0;whiteSpace=wrap;html=1;fillColor=#d5e8d4;strokeColor=#82b366;" parent="1" vertex="1">
          <mxGeometry x="250" y="350" width="120" height="60" as="geometry" />
        </mxCell>
        <mxCell id="FPQnXXEWQoTXQ_zC0M5o-22" value="" style="rounded=0;whiteSpace=wrap;html=1;fillColor=#e1d5e7;strokeColor=#9673a6;" parent="1" vertex="1">
          <mxGeometry x="348" y="335" width="20" height="20" as="geometry" />
        </mxCell>
        <mxCell id="FPQnXXEWQoTXQ_zC0M5o-24" value="KafkaListener" style="text;html=1;strokeColor=none;fillColor=none;align=center;verticalAlign=middle;whiteSpace=wrap;rounded=0;fontSize=9;" parent="1" vertex="1">
          <mxGeometry x="380" y="330" width="40" height="20" as="geometry" />
        </mxCell>
        <mxCell id="CqvscLPTOn5NIJj6WVxx-2" style="edgeStyle=orthogonalEdgeStyle;rounded=0;orthogonalLoop=1;jettySize=auto;html=1;exitX=0.5;exitY=1;exitDx=0;exitDy=0;exitPerimeter=0;entryX=0.5;entryY=1;entryDx=0;entryDy=0;dashed=1;fontSize=9;" parent="1" source="FPQnXXEWQoTXQ_zC0M5o-25" target="FPQnXXEWQoTXQ_zC0M5o-21" edge="1">
          <mxGeometry relative="1" as="geometry" />
        </mxCell>
        <mxCell id="FPQnXXEWQoTXQ_zC0M5o-25" value="query&lt;br&gt;H2" style="shape=cylinder3;whiteSpace=wrap;html=1;boundedLbl=1;backgroundOutline=1;size=15;" parent="1" vertex="1">
          <mxGeometry x="440" y="340" width="70" height="80" as="geometry" />
        </mxCell>
        <mxCell id="FPQnXXEWQoTXQ_zC0M5o-27" value="" style="ellipse;whiteSpace=wrap;html=1;fillColor=#dae8fc;strokeColor=none;" parent="1" vertex="1">
          <mxGeometry x="60" y="360" width="40" height="40" as="geometry" />
        </mxCell>
        <mxCell id="FPQnXXEWQoTXQ_zC0M5o-28" value="User" style="text;html=1;strokeColor=none;fillColor=none;align=center;verticalAlign=middle;whiteSpace=wrap;rounded=0;" parent="1" vertex="1">
          <mxGeometry x="60" y="400" width="40" height="20" as="geometry" />
        </mxCell>
        <mxCell id="FPQnXXEWQoTXQ_zC0M5o-29" value="" style="shape=flexArrow;endArrow=classic;html=1;endWidth=30.697674418604652;endSize=8.411627906976745;width=23.72093023255814;" parent="1" edge="1">
          <mxGeometry width="50" height="50" relative="1" as="geometry">
            <mxPoint x="100" y="379.71000000000004" as="sourcePoint" />
            <mxPoint x="250" y="379.7957142857142" as="targetPoint" />
          </mxGeometry>
        </mxCell>
        <mxCell id="FPQnXXEWQoTXQ_zC0M5o-30" value="GET" style="edgeLabel;html=1;align=center;verticalAlign=middle;resizable=0;points=[];" parent="FPQnXXEWQoTXQ_zC0M5o-29" vertex="1" connectable="0">
          <mxGeometry x="-0.1707" y="1" relative="1" as="geometry">
            <mxPoint as="offset" />
          </mxGeometry>
        </mxCell>
        <mxCell id="FPQnXXEWQoTXQ_zC0M5o-33" value="&lt;font color=&quot;#97d077&quot;&gt;ACEPTED&lt;/font&gt;" style="text;html=1;strokeColor=none;fillColor=none;align=center;verticalAlign=middle;whiteSpace=wrap;rounded=0;fontSize=9;" parent="1" vertex="1">
          <mxGeometry x="138" y="200" width="40" height="20" as="geometry" />
        </mxCell>
        <mxCell id="CqvscLPTOn5NIJj6WVxx-6" value="1" style="ellipse;whiteSpace=wrap;html=1;aspect=fixed;fontSize=9;labelBackgroundColor=#000000;fontColor=#FFFFFF;fontStyle=1;fillColor=#000000;" parent="1" vertex="1">
          <mxGeometry x="236" y="150" width="14" height="14" as="geometry" />
        </mxCell>
        <mxCell id="CqvscLPTOn5NIJj6WVxx-9" value="2" style="ellipse;whiteSpace=wrap;html=1;aspect=fixed;fontSize=9;labelBackgroundColor=#000000;fontColor=#FFFFFF;fontStyle=1;fillColor=#000000;" parent="1" vertex="1">
          <mxGeometry x="393" y="164" width="14" height="14" as="geometry" />
        </mxCell>
        <mxCell id="CqvscLPTOn5NIJj6WVxx-10" value="3" style="ellipse;whiteSpace=wrap;html=1;aspect=fixed;fontSize=9;labelBackgroundColor=#000000;fontColor=#FFFFFF;fontStyle=1;fillColor=#000000;" parent="1" vertex="1">
          <mxGeometry x="210" y="250" width="14" height="14" as="geometry" />
        </mxCell>
        <mxCell id="CqvscLPTOn5NIJj6WVxx-11" value="5" style="ellipse;whiteSpace=wrap;html=1;aspect=fixed;fontSize=9;labelBackgroundColor=#000000;fontColor=#FFFFFF;fontStyle=1;fillColor=#000000;" parent="1" vertex="1">
          <mxGeometry x="334" y="326" width="14" height="14" as="geometry" />
        </mxCell>
        <mxCell id="CqvscLPTOn5NIJj6WVxx-12" value="6" style="ellipse;whiteSpace=wrap;html=1;aspect=fixed;fontSize=9;labelBackgroundColor=#000000;fontColor=#FFFFFF;fontStyle=1;fillColor=#000000;" parent="1" vertex="1">
          <mxGeometry x="426" y="360" width="14" height="14" as="geometry" />
        </mxCell>
        <mxCell id="CqvscLPTOn5NIJj6WVxx-13" value="1" style="ellipse;whiteSpace=wrap;html=1;aspect=fixed;fontSize=9;labelBackgroundColor=#FF0000;fontColor=#FFFFFF;fontStyle=1;fillColor=#FF0000;labelBorderColor=none;strokeColor=none;" parent="1" vertex="1">
          <mxGeometry x="110" y="355" width="14" height="14" as="geometry" />
        </mxCell>
        <mxCell id="CqvscLPTOn5NIJj6WVxx-14" value="2" style="ellipse;whiteSpace=wrap;html=1;aspect=fixed;fontSize=9;labelBackgroundColor=#FF0000;fontColor=#FFFFFF;fontStyle=1;fillColor=#FF0000;labelBorderColor=none;strokeColor=none;" parent="1" vertex="1">
          <mxGeometry x="370" y="430" width="14" height="14" as="geometry" />
        </mxCell>
        <mxCell id="CqvscLPTOn5NIJj6WVxx-16" value="4" style="ellipse;whiteSpace=wrap;html=1;aspect=fixed;fontSize=9;labelBackgroundColor=#000000;fontColor=#FFFFFF;fontStyle=1;fillColor=#000000;" parent="1" vertex="1">
          <mxGeometry x="122" y="203" width="14" height="14" as="geometry" />
        </mxCell>
        <mxCell id="CqvscLPTOn5NIJj6WVxx-18" value="&lt;font color=&quot;#97d077&quot;&gt;OK&lt;/font&gt;" style="text;html=1;strokeColor=none;fillColor=none;align=center;verticalAlign=middle;whiteSpace=wrap;rounded=0;fontSize=9;" parent="1" vertex="1">
          <mxGeometry x="148" y="390" width="40" height="20" as="geometry" />
        </mxCell>
        <mxCell id="CqvscLPTOn5NIJj6WVxx-19" value="3" style="ellipse;whiteSpace=wrap;html=1;aspect=fixed;fontSize=9;labelBackgroundColor=#FF0000;fontColor=#FFFFFF;fontStyle=1;fillColor=#FF0000;labelBorderColor=none;strokeColor=none;" parent="1" vertex="1">
          <mxGeometry x="143" y="393" width="14" height="14" as="geometry" />
        </mxCell>
        <mxCell id="utGcUq5_92awLmo4414_-2" value="&lt;font style=&quot;font-size: 9px;&quot; color=&quot;#ff0000&quot;&gt;NOT FOUND&lt;/font&gt;" style="text;html=1;strokeColor=none;fillColor=none;align=center;verticalAlign=middle;whiteSpace=wrap;rounded=0;labelBackgroundColor=none;fontSize=9;fontColor=#000000;" parent="1" vertex="1">
          <mxGeometry x="157" y="407" width="63" height="20" as="geometry" />
        </mxCell>
      </root>
    </mxGraphModel>
  </diagram>
  <diagram id="2C0VMGDJdFqffSNqi8nd" name="Page-2">
    <mxGraphModel dx="716" dy="378" grid="1" gridSize="10" guides="1" tooltips="1" connect="1" arrows="1" fold="1" page="1" pageScale="1" pageWidth="827" pageHeight="1169" math="0" shadow="0">
      <root>
        <mxCell id="nDmpK35CxZWImTQ2deqX-0" />
        <mxCell id="nDmpK35CxZWImTQ2deqX-1" parent="nDmpK35CxZWImTQ2deqX-0" />
        <mxCell id="Ew7H27AF6_pMdPy1NghV-0" value="" style="ellipse;whiteSpace=wrap;html=1;fillColor=#dae8fc;strokeColor=none;" vertex="1" parent="nDmpK35CxZWImTQ2deqX-1">
          <mxGeometry x="60" y="160" width="40" height="40" as="geometry" />
        </mxCell>
        <mxCell id="Ew7H27AF6_pMdPy1NghV-1" value="User" style="text;html=1;strokeColor=none;fillColor=none;align=center;verticalAlign=middle;whiteSpace=wrap;rounded=0;" vertex="1" parent="nDmpK35CxZWImTQ2deqX-1">
          <mxGeometry x="60" y="200" width="40" height="20" as="geometry" />
        </mxCell>
        <mxCell id="Ew7H27AF6_pMdPy1NghV-2" value="POST" style="text;html=1;strokeColor=none;fillColor=none;align=center;verticalAlign=middle;whiteSpace=wrap;rounded=0;" vertex="1" parent="nDmpK35CxZWImTQ2deqX-1">
          <mxGeometry x="130" y="170" width="40" height="20" as="geometry" />
        </mxCell>
        <mxCell id="Ew7H27AF6_pMdPy1NghV-3" value="" style="shape=flexArrow;endArrow=classic;html=1;endWidth=30.697674418604652;endSize=8.411627906976745;width=23.72093023255814;" edge="1" parent="nDmpK35CxZWImTQ2deqX-1" target="Ew7H27AF6_pMdPy1NghV-6">
          <mxGeometry width="50" height="50" relative="1" as="geometry">
            <mxPoint x="100" y="179.88" as="sourcePoint" />
            <mxPoint x="220" y="179.88" as="targetPoint" />
          </mxGeometry>
        </mxCell>
        <mxCell id="Ew7H27AF6_pMdPy1NghV-4" style="edgeStyle=orthogonalEdgeStyle;rounded=0;orthogonalLoop=1;jettySize=auto;html=1;exitX=1;exitY=0.5;exitDx=0;exitDy=0;entryX=0;entryY=0.5;entryDx=0;entryDy=0;entryPerimeter=0;dashed=1;" edge="1" parent="nDmpK35CxZWImTQ2deqX-1" source="Ew7H27AF6_pMdPy1NghV-6" target="Ew7H27AF6_pMdPy1NghV-7">
          <mxGeometry relative="1" as="geometry" />
        </mxCell>
        <mxCell id="Ew7H27AF6_pMdPy1NghV-5" style="edgeStyle=orthogonalEdgeStyle;rounded=0;orthogonalLoop=1;jettySize=auto;html=1;exitX=0.5;exitY=1;exitDx=0;exitDy=0;entryX=0;entryY=0.5;entryDx=0;entryDy=0;dashed=1;" edge="1" parent="nDmpK35CxZWImTQ2deqX-1" source="Ew7H27AF6_pMdPy1NghV-6" target="Ew7H27AF6_pMdPy1NghV-9">
          <mxGeometry relative="1" as="geometry" />
        </mxCell>
        <mxCell id="Ew7H27AF6_pMdPy1NghV-42" style="edgeStyle=orthogonalEdgeStyle;rounded=0;orthogonalLoop=1;jettySize=auto;html=1;exitX=0.75;exitY=1;exitDx=0;exitDy=0;entryX=0.5;entryY=1;entryDx=0;entryDy=0;entryPerimeter=0;dashed=1;fontSize=9;fontColor=#FFFFFF;" edge="1" parent="nDmpK35CxZWImTQ2deqX-1" source="Ew7H27AF6_pMdPy1NghV-6" target="Ew7H27AF6_pMdPy1NghV-7">
          <mxGeometry relative="1" as="geometry">
            <Array as="points">
              <mxPoint x="340" y="240" />
              <mxPoint x="465" y="240" />
            </Array>
          </mxGeometry>
        </mxCell>
        <mxCell id="Ew7H27AF6_pMdPy1NghV-6" value="Command&amp;nbsp;&lt;br&gt;Microservice" style="rounded=0;whiteSpace=wrap;html=1;fillColor=#ffe6cc;strokeColor=none;" vertex="1" parent="nDmpK35CxZWImTQ2deqX-1">
          <mxGeometry x="250" y="150" width="120" height="60" as="geometry" />
        </mxCell>
        <mxCell id="Ew7H27AF6_pMdPy1NghV-7" value="command&amp;nbsp;&lt;br&gt;H2" style="shape=cylinder3;whiteSpace=wrap;html=1;boundedLbl=1;backgroundOutline=1;size=15;" vertex="1" parent="nDmpK35CxZWImTQ2deqX-1">
          <mxGeometry x="430" y="140" width="70" height="80" as="geometry" />
        </mxCell>
        <mxCell id="Ew7H27AF6_pMdPy1NghV-8" style="edgeStyle=orthogonalEdgeStyle;rounded=0;orthogonalLoop=1;jettySize=auto;html=1;exitX=0.602;exitY=0.978;exitDx=0;exitDy=0;entryX=0.5;entryY=0;entryDx=0;entryDy=0;dashed=1;exitPerimeter=0;" edge="1" parent="nDmpK35CxZWImTQ2deqX-1" source="Ew7H27AF6_pMdPy1NghV-9" target="Ew7H27AF6_pMdPy1NghV-13">
          <mxGeometry relative="1" as="geometry" />
        </mxCell>
        <mxCell id="Ew7H27AF6_pMdPy1NghV-9" value="Apache Kafka Topic" style="rounded=1;whiteSpace=wrap;html=1;fillColor=#fff2cc;strokeColor=#d6b656;" vertex="1" parent="nDmpK35CxZWImTQ2deqX-1">
          <mxGeometry x="250" y="250" width="180" height="30" as="geometry" />
        </mxCell>
        <mxCell id="Ew7H27AF6_pMdPy1NghV-10" value="" style="shape=image;verticalLabelPosition=bottom;labelBackgroundColor=#ffffff;verticalAlign=top;aspect=fixed;imageAspect=0;image=https://cdn.icon-icons.com/icons2/2248/PNG/512/apache_kafka_icon_138937.png;" vertex="1" parent="nDmpK35CxZWImTQ2deqX-1">
          <mxGeometry x="430" y="250" width="32" height="32" as="geometry" />
        </mxCell>
        <mxCell id="Ew7H27AF6_pMdPy1NghV-11" style="edgeStyle=orthogonalEdgeStyle;rounded=0;orthogonalLoop=1;jettySize=auto;html=1;exitX=1;exitY=0.5;exitDx=0;exitDy=0;entryX=0;entryY=0.5;entryDx=0;entryDy=0;entryPerimeter=0;dashed=1;" edge="1" parent="nDmpK35CxZWImTQ2deqX-1" source="Ew7H27AF6_pMdPy1NghV-12" target="Ew7H27AF6_pMdPy1NghV-16">
          <mxGeometry relative="1" as="geometry" />
        </mxCell>
        <mxCell id="Ew7H27AF6_pMdPy1NghV-35" style="edgeStyle=orthogonalEdgeStyle;rounded=0;orthogonalLoop=1;jettySize=auto;html=1;exitX=1;exitY=0.25;exitDx=0;exitDy=0;dashed=1;fontSize=9;fontColor=#FFFFFF;entryX=0;entryY=0.5;entryDx=0;entryDy=0;" edge="1" parent="nDmpK35CxZWImTQ2deqX-1" source="Ew7H27AF6_pMdPy1NghV-12" target="Ew7H27AF6_pMdPy1NghV-32">
          <mxGeometry relative="1" as="geometry">
            <mxPoint x="480" y="260" as="targetPoint" />
            <Array as="points">
              <mxPoint x="460" y="365" />
              <mxPoint x="460" y="265" />
            </Array>
          </mxGeometry>
        </mxCell>
        <mxCell id="Ew7H27AF6_pMdPy1NghV-12" value="Query&lt;br&gt;Microservice" style="rounded=0;whiteSpace=wrap;html=1;fillColor=#d5e8d4;strokeColor=#82b366;" vertex="1" parent="nDmpK35CxZWImTQ2deqX-1">
          <mxGeometry x="250" y="350" width="120" height="60" as="geometry" />
        </mxCell>
        <mxCell id="Ew7H27AF6_pMdPy1NghV-13" value="" style="rounded=0;whiteSpace=wrap;html=1;fillColor=#e1d5e7;strokeColor=#9673a6;" vertex="1" parent="nDmpK35CxZWImTQ2deqX-1">
          <mxGeometry x="348" y="335" width="20" height="20" as="geometry" />
        </mxCell>
        <mxCell id="Ew7H27AF6_pMdPy1NghV-14" value="KafkaListener" style="text;html=1;strokeColor=none;fillColor=none;align=center;verticalAlign=middle;whiteSpace=wrap;rounded=0;fontSize=9;" vertex="1" parent="nDmpK35CxZWImTQ2deqX-1">
          <mxGeometry x="380" y="330" width="40" height="20" as="geometry" />
        </mxCell>
        <mxCell id="Ew7H27AF6_pMdPy1NghV-15" style="edgeStyle=orthogonalEdgeStyle;rounded=0;orthogonalLoop=1;jettySize=auto;html=1;exitX=0.5;exitY=1;exitDx=0;exitDy=0;exitPerimeter=0;entryX=0.5;entryY=1;entryDx=0;entryDy=0;dashed=1;fontSize=9;" edge="1" parent="nDmpK35CxZWImTQ2deqX-1" source="Ew7H27AF6_pMdPy1NghV-16" target="Ew7H27AF6_pMdPy1NghV-12">
          <mxGeometry relative="1" as="geometry" />
        </mxCell>
        <mxCell id="Ew7H27AF6_pMdPy1NghV-16" value="query&lt;br&gt;H2" style="shape=cylinder3;whiteSpace=wrap;html=1;boundedLbl=1;backgroundOutline=1;size=15;" vertex="1" parent="nDmpK35CxZWImTQ2deqX-1">
          <mxGeometry x="510" y="340" width="70" height="80" as="geometry" />
        </mxCell>
        <mxCell id="Ew7H27AF6_pMdPy1NghV-17" value="" style="ellipse;whiteSpace=wrap;html=1;fillColor=#dae8fc;strokeColor=none;" vertex="1" parent="nDmpK35CxZWImTQ2deqX-1">
          <mxGeometry x="60" y="360" width="40" height="40" as="geometry" />
        </mxCell>
        <mxCell id="Ew7H27AF6_pMdPy1NghV-18" value="User" style="text;html=1;strokeColor=none;fillColor=none;align=center;verticalAlign=middle;whiteSpace=wrap;rounded=0;" vertex="1" parent="nDmpK35CxZWImTQ2deqX-1">
          <mxGeometry x="60" y="400" width="40" height="20" as="geometry" />
        </mxCell>
        <mxCell id="Ew7H27AF6_pMdPy1NghV-19" value="" style="shape=flexArrow;endArrow=classic;html=1;endWidth=30.697674418604652;endSize=8.411627906976745;width=23.72093023255814;" edge="1" parent="nDmpK35CxZWImTQ2deqX-1">
          <mxGeometry width="50" height="50" relative="1" as="geometry">
            <mxPoint x="100" y="379.71000000000004" as="sourcePoint" />
            <mxPoint x="250" y="379.7957142857142" as="targetPoint" />
          </mxGeometry>
        </mxCell>
        <mxCell id="Ew7H27AF6_pMdPy1NghV-20" value="GET" style="edgeLabel;html=1;align=center;verticalAlign=middle;resizable=0;points=[];" vertex="1" connectable="0" parent="Ew7H27AF6_pMdPy1NghV-19">
          <mxGeometry x="-0.1707" y="1" relative="1" as="geometry">
            <mxPoint as="offset" />
          </mxGeometry>
        </mxCell>
        <mxCell id="Ew7H27AF6_pMdPy1NghV-21" value="&lt;font color=&quot;#97d077&quot;&gt;ACEPTED&lt;/font&gt;" style="text;html=1;strokeColor=none;fillColor=none;align=center;verticalAlign=middle;whiteSpace=wrap;rounded=0;fontSize=9;" vertex="1" parent="nDmpK35CxZWImTQ2deqX-1">
          <mxGeometry x="145" y="190" width="40" height="20" as="geometry" />
        </mxCell>
        <mxCell id="Ew7H27AF6_pMdPy1NghV-22" value="1" style="ellipse;whiteSpace=wrap;html=1;aspect=fixed;fontSize=9;labelBackgroundColor=#000000;fontColor=#FFFFFF;fontStyle=1;fillColor=#000000;" vertex="1" parent="nDmpK35CxZWImTQ2deqX-1">
          <mxGeometry x="236" y="150" width="14" height="14" as="geometry" />
        </mxCell>
        <mxCell id="Ew7H27AF6_pMdPy1NghV-23" value="2" style="ellipse;whiteSpace=wrap;html=1;aspect=fixed;fontSize=9;labelBackgroundColor=#000000;fontColor=#FFFFFF;fontStyle=1;fillColor=#000000;" vertex="1" parent="nDmpK35CxZWImTQ2deqX-1">
          <mxGeometry x="393" y="164" width="14" height="14" as="geometry" />
        </mxCell>
        <mxCell id="Ew7H27AF6_pMdPy1NghV-24" value="3" style="ellipse;whiteSpace=wrap;html=1;aspect=fixed;fontSize=9;labelBackgroundColor=#000000;fontColor=#FFFFFF;fontStyle=1;fillColor=#000000;" vertex="1" parent="nDmpK35CxZWImTQ2deqX-1">
          <mxGeometry x="210" y="250" width="14" height="14" as="geometry" />
        </mxCell>
        <mxCell id="Ew7H27AF6_pMdPy1NghV-25" value="5" style="ellipse;whiteSpace=wrap;html=1;aspect=fixed;fontSize=9;labelBackgroundColor=#000000;fontColor=#FFFFFF;fontStyle=1;fillColor=#000000;" vertex="1" parent="nDmpK35CxZWImTQ2deqX-1">
          <mxGeometry x="334" y="326" width="14" height="14" as="geometry" />
        </mxCell>
        <mxCell id="Ew7H27AF6_pMdPy1NghV-26" value="6" style="ellipse;whiteSpace=wrap;html=1;aspect=fixed;fontSize=9;labelBackgroundColor=#000000;fontColor=#FFFFFF;fontStyle=1;fillColor=#000000;" vertex="1" parent="nDmpK35CxZWImTQ2deqX-1">
          <mxGeometry x="486" y="360" width="14" height="14" as="geometry" />
        </mxCell>
        <mxCell id="Ew7H27AF6_pMdPy1NghV-27" value="1" style="ellipse;whiteSpace=wrap;html=1;aspect=fixed;fontSize=9;labelBackgroundColor=#FF0000;fontColor=#FFFFFF;fontStyle=1;fillColor=#FF0000;labelBorderColor=none;strokeColor=none;" vertex="1" parent="nDmpK35CxZWImTQ2deqX-1">
          <mxGeometry x="110" y="355" width="14" height="14" as="geometry" />
        </mxCell>
        <mxCell id="Ew7H27AF6_pMdPy1NghV-28" value="2" style="ellipse;whiteSpace=wrap;html=1;aspect=fixed;fontSize=9;labelBackgroundColor=#FF0000;fontColor=#FFFFFF;fontStyle=1;fillColor=#FF0000;labelBorderColor=none;strokeColor=none;" vertex="1" parent="nDmpK35CxZWImTQ2deqX-1">
          <mxGeometry x="370" y="430" width="14" height="14" as="geometry" />
        </mxCell>
        <mxCell id="Ew7H27AF6_pMdPy1NghV-29" value="4" style="ellipse;whiteSpace=wrap;html=1;aspect=fixed;fontSize=9;labelBackgroundColor=#000000;fontColor=#FFFFFF;fontStyle=1;fillColor=#000000;" vertex="1" parent="nDmpK35CxZWImTQ2deqX-1">
          <mxGeometry x="124" y="193" width="14" height="14" as="geometry" />
        </mxCell>
        <mxCell id="Ew7H27AF6_pMdPy1NghV-30" value="&lt;font color=&quot;#97d077&quot;&gt;OK&lt;/font&gt;" style="text;html=1;strokeColor=none;fillColor=none;align=center;verticalAlign=middle;whiteSpace=wrap;rounded=0;fontSize=9;" vertex="1" parent="nDmpK35CxZWImTQ2deqX-1">
          <mxGeometry x="148" y="390" width="40" height="20" as="geometry" />
        </mxCell>
        <mxCell id="Ew7H27AF6_pMdPy1NghV-31" value="3" style="ellipse;whiteSpace=wrap;html=1;aspect=fixed;fontSize=9;labelBackgroundColor=#FF0000;fontColor=#FFFFFF;fontStyle=1;fillColor=#FF0000;labelBorderColor=none;strokeColor=none;" vertex="1" parent="nDmpK35CxZWImTQ2deqX-1">
          <mxGeometry x="143" y="393" width="14" height="14" as="geometry" />
        </mxCell>
        <mxCell id="Ew7H27AF6_pMdPy1NghV-38" style="edgeStyle=orthogonalEdgeStyle;rounded=0;orthogonalLoop=1;jettySize=auto;html=1;exitX=0.5;exitY=0;exitDx=0;exitDy=0;entryX=0.5;entryY=0;entryDx=0;entryDy=0;dashed=1;fontSize=9;fontColor=#FFFFFF;" edge="1" parent="nDmpK35CxZWImTQ2deqX-1" source="Ew7H27AF6_pMdPy1NghV-32" target="Ew7H27AF6_pMdPy1NghV-37">
          <mxGeometry relative="1" as="geometry" />
        </mxCell>
        <mxCell id="Ew7H27AF6_pMdPy1NghV-32" value="Apache Kafka Topic" style="rounded=1;whiteSpace=wrap;html=1;fillColor=#fff2cc;strokeColor=#d6b656;" vertex="1" parent="nDmpK35CxZWImTQ2deqX-1">
          <mxGeometry x="500" y="250" width="180" height="30" as="geometry" />
        </mxCell>
        <mxCell id="Ew7H27AF6_pMdPy1NghV-33" value="" style="shape=image;verticalLabelPosition=bottom;labelBackgroundColor=#ffffff;verticalAlign=top;aspect=fixed;imageAspect=0;image=https://cdn.icon-icons.com/icons2/2248/PNG/512/apache_kafka_icon_138937.png;" vertex="1" parent="nDmpK35CxZWImTQ2deqX-1">
          <mxGeometry x="680" y="250" width="32" height="32" as="geometry" />
        </mxCell>
        <mxCell id="Ew7H27AF6_pMdPy1NghV-36" value="7" style="ellipse;whiteSpace=wrap;html=1;aspect=fixed;fontSize=9;labelBackgroundColor=#000000;fontColor=#FFFFFF;fontStyle=1;fillColor=#000000;" vertex="1" parent="nDmpK35CxZWImTQ2deqX-1">
          <mxGeometry x="462" y="312" width="14" height="14" as="geometry" />
        </mxCell>
        <mxCell id="Ew7H27AF6_pMdPy1NghV-37" value="" style="rounded=0;whiteSpace=wrap;html=1;fillColor=#e1d5e7;strokeColor=#9673a6;" vertex="1" parent="nDmpK35CxZWImTQ2deqX-1">
          <mxGeometry x="360" y="140" width="20" height="20" as="geometry" />
        </mxCell>
        <mxCell id="Ew7H27AF6_pMdPy1NghV-39" value="8" style="ellipse;whiteSpace=wrap;html=1;aspect=fixed;fontSize=9;labelBackgroundColor=#000000;fontColor=#FFFFFF;fontStyle=1;fillColor=#000000;" vertex="1" parent="nDmpK35CxZWImTQ2deqX-1">
          <mxGeometry x="420" y="100" width="14" height="14" as="geometry" />
        </mxCell>
        <mxCell id="Ew7H27AF6_pMdPy1NghV-40" value="save Phone" style="text;html=1;strokeColor=none;fillColor=none;align=center;verticalAlign=middle;whiteSpace=wrap;rounded=0;labelBackgroundColor=#000000;fontSize=9;fontColor=#FFFFFF;" vertex="1" parent="nDmpK35CxZWImTQ2deqX-1">
          <mxGeometry x="380" y="183" width="40" height="20" as="geometry" />
        </mxCell>
        <mxCell id="Ew7H27AF6_pMdPy1NghV-41" value="save&amp;nbsp;&lt;br&gt;Event" style="text;html=1;strokeColor=none;fillColor=none;align=center;verticalAlign=middle;whiteSpace=wrap;rounded=0;labelBackgroundColor=#000000;fontSize=9;fontColor=#FFFFFF;" vertex="1" parent="nDmpK35CxZWImTQ2deqX-1">
          <mxGeometry x="380" y="217" width="40" height="20" as="geometry" />
        </mxCell>
        <mxCell id="Ew7H27AF6_pMdPy1NghV-43" value="9" style="ellipse;whiteSpace=wrap;html=1;aspect=fixed;fontSize=9;labelBackgroundColor=#000000;fontColor=#FFFFFF;fontStyle=1;fillColor=#000000;" vertex="1" parent="nDmpK35CxZWImTQ2deqX-1">
          <mxGeometry x="368" y="220" width="14" height="14" as="geometry" />
        </mxCell>
        <mxCell id="Ew7H27AF6_pMdPy1NghV-45" value="Id del evento" style="text;html=1;strokeColor=none;fillColor=none;align=center;verticalAlign=middle;whiteSpace=wrap;rounded=0;labelBackgroundColor=none;fontSize=9;" vertex="1" parent="nDmpK35CxZWImTQ2deqX-1">
          <mxGeometry x="143" y="203" width="40" height="20" as="geometry" />
        </mxCell>
        <mxCell id="Ew7H27AF6_pMdPy1NghV-51" value="" style="shape=flexArrow;endArrow=classic;html=1;fontSize=9;fontColor=#000000;width=33.10344827586207;endSize=10.710344827586207;" edge="1" parent="nDmpK35CxZWImTQ2deqX-1">
          <mxGeometry width="50" height="50" relative="1" as="geometry">
            <mxPoint x="95" y="250" as="sourcePoint" />
            <mxPoint x="205" y="250" as="targetPoint" />
            <Array as="points">
              <mxPoint x="155" y="250" />
            </Array>
          </mxGeometry>
        </mxCell>
        <mxCell id="Ew7H27AF6_pMdPy1NghV-52" value="GET" style="edgeLabel;html=1;align=center;verticalAlign=middle;resizable=0;points=[];fontSize=12;fontColor=#000000;fontStyle=0" vertex="1" connectable="0" parent="Ew7H27AF6_pMdPy1NghV-51">
          <mxGeometry x="-0.6082" y="5" relative="1" as="geometry">
            <mxPoint x="14.62" y="5" as="offset" />
          </mxGeometry>
        </mxCell>
        <mxCell id="Ew7H27AF6_pMdPy1NghV-53" value="&lt;font color=&quot;#97d077&quot;&gt;OK &lt;br&gt;NOT FOUND&lt;/font&gt;" style="text;html=1;strokeColor=none;fillColor=none;align=center;verticalAlign=middle;whiteSpace=wrap;rounded=0;fontSize=9;" vertex="1" parent="nDmpK35CxZWImTQ2deqX-1">
          <mxGeometry x="90" y="270" width="70" height="20" as="geometry" />
        </mxCell>
        <mxCell id="0gVeb_RJPJW1ZxWyVQUz-1" value="KafkaListener" style="text;html=1;strokeColor=none;fillColor=none;align=center;verticalAlign=middle;whiteSpace=wrap;rounded=0;fontSize=9;" vertex="1" parent="nDmpK35CxZWImTQ2deqX-1">
          <mxGeometry x="390" y="130" width="40" height="20" as="geometry" />
        </mxCell>
        <mxCell id="a2eAsUC0NsT7DbOl51_4-0" value="&lt;font style=&quot;font-size: 9px;&quot; color=&quot;#ff0000&quot;&gt;NOT FOUND&lt;/font&gt;" style="text;html=1;strokeColor=none;fillColor=none;align=center;verticalAlign=middle;whiteSpace=wrap;rounded=0;labelBackgroundColor=none;fontSize=9;fontColor=#000000;" vertex="1" parent="nDmpK35CxZWImTQ2deqX-1">
          <mxGeometry x="157" y="407" width="63" height="20" as="geometry" />
        </mxCell>
      </root>
    </mxGraphModel>
  </diagram>
</mxfile>
